<svg xmlns="http://www.w3.org/2000/svg" xmlns:xlink="http://www.w3.org/1999/xlink" fill="none" version="1.1" width="48" height="48" viewBox="0 0 48 48"><defs><clipPath id="master_svg0_16_01118"><rect x="12.5" y="9" width="7" height="14" rx="0"/></clipPath></defs><g><rect x="0" y="0" width="48" height="48" rx="24" fill="#ACA487" fill-opacity="1" style="mix-blend-mode:passthrough"/><g transform="matrix(1,0,0,-1,0,66)"><path d="M19.21875053209961,42.9241066Q18.85714340209961,42.5223217,18.85714340209961,42Q18.85714340209961,41.4776793,19.21875053209961,41.0758924L26.93303580209961,33.36160713Q27.334822702099608,33,27.85714340209961,33Q28.37946510209961,33,28.78125000209961,33.36160713Q29.142857402099608,33.76339287,29.142857402099608,34.2857143Q29.142857402099608,34.8080356,28.78125000209961,35.2098215L21.95089340209961,42L28.78125000209961,48.790178Q29.142857402099608,49.191963,29.142857402099608,49.714285000000004Q29.142857402099608,50.236609,28.78125000209961,50.638393Q28.37946510209961,51,27.85714340209961,51Q27.334822702099608,51,26.93303580209961,50.638393L19.21875053209961,42.9241066Z" fill="#FFFFFF" fill-opacity="1" style="mix-blend-mode:passthrough"/></g><g><rect x="11.625" y="9" width="8.75" height="14" rx="0" fill="#000000" fill-opacity="0" style="mix-blend-mode:passthrough"/><g clip-path="url(#master_svg0_16_01118)"></g></g></g></svg>