<svg xmlns="http://www.w3.org/2000/svg" xmlns:xlink="http://www.w3.org/1999/xlink" fill="none" version="1.1" width="12" height="15.96875" viewBox="0 0 12 15.96875"><g transform="matrix(1,0,0,-1,0,31.9375)"><path d="M6.75,16.34375Q7.59375,17.375,8.8125,19.125Q10.03125,20.84375,11,22.6875Q11.9375,24.53125,12,25.9375Q11.9375,28.5,10.25,30.1875Q8.5625,31.875,6,31.9375Q3.4375,31.875,1.75,30.1875Q0.0625,28.5,0,25.9375Q0.0625,24.53125,1,22.6875Q1.96875,20.84375,3.1875,19.125Q4.40625,17.375,5.25,16.34375Q5.5625,15.96875,6,15.96875Q6.4375,15.96875,6.75,16.34375ZM6,27.9375Q7.125,27.90625,7.71875,26.9375Q8.28125,25.9375,7.71875,24.9375Q7.125,23.96875,6,23.9375Q4.875,23.96875,4.28125,24.9375Q3.71875,25.9375,4.28125,26.9375Q4.875,27.90625,6,27.9375Z" fill="#86742B" fill-opacity="1" style="mix-blend-mode:passthrough"/></g></svg>