<svg xmlns="http://www.w3.org/2000/svg" xmlns:xlink="http://www.w3.org/1999/xlink" fill="none" version="1.1" width="16" height="16" viewBox="0 0 16 16"><g transform="matrix(1,0,0,-1,0,32)"><path d="M5.15625,31.21875Q4.96875,31.6875,4.5625,31.875Q4.125,32.0625,3.65625,31.96875L0.90625,31.21875Q0.0625,30.90625,0,30Q0.03125,26.09375,1.90625,22.9375Q3.78125,19.78125,6.9375,17.90625Q10.09375,16.03125,14,16Q14.90625,16.0625,15.21875,16.90625L15.96875,19.65625Q16.0625,20.125,15.875,20.5625Q15.6875,20.96875,15.21875,21.15625L12.21875,22.40625Q11.375,22.6875,10.78125,22.03125L9.53125,20.5Q7.875,21.28125,6.5625,22.5625Q5.28125,23.875,4.5,25.53125L6.03125,26.78125Q6.6875,27.375,6.40625,28.21875L5.15625,31.21875Z" fill="#86742B" fill-opacity="1" style="mix-blend-mode:passthrough"/></g></svg>